<svg width="24" height="20" viewBox="0 0 24 20" fill="none" xmlns="http://www.w3.org/2000/svg">
<path d="M23.5735 2.53907C23.2625 2.17148 22.827 1.94695 22.3472 1.90687L5.44615 0.495655C4.96625 0.455577 4.49965 0.60478 4.13201 0.915701C3.76588 1.2254 3.54167 1.65867 3.50033 2.13618L3.1603 5.32629H1.80257C0.808637 5.32629 0 6.13493 0 7.12886V17.7086C0 18.7025 0.808637 19.5112 1.80257 19.5112H18.7625C19.7565 19.5112 20.5651 18.7025 20.5651 17.7086V15.9924L21.1669 16.0426C21.2177 16.0468 21.2682 16.049 21.3182 16.049C22.2449 16.049 23.0348 15.336 23.1133 14.3963L23.9936 3.85325C24.0337 3.37339 23.8845 2.90671 23.5735 2.53907ZM1.80257 6.26379H18.7625C19.2395 6.26379 19.6276 6.65187 19.6276 7.12886V8.09289H0.937496V7.12886C0.937496 6.65187 1.32557 6.26379 1.80257 6.26379ZM0.937496 9.03039H19.6276V10.9752H0.937496V9.03039ZM18.7625 18.5737H1.80257C1.32557 18.5737 0.937496 18.1856 0.937496 17.7086V11.9127H19.6276V17.7086C19.6276 18.1856 19.2395 18.5737 18.7625 18.5737ZM23.0594 3.7752L22.179 14.3182C22.1393 14.7936 21.7202 15.1482 21.2449 15.1084L20.5651 15.0516V7.12886C20.5651 6.13493 19.7565 5.32629 18.7625 5.32629H4.10314L4.43309 2.23068C4.43347 2.22712 4.43379 2.2236 4.43408 2.21999C4.47378 1.74464 4.89265 1.39007 5.36815 1.42992L22.2692 2.84113C22.4995 2.86035 22.7086 2.96811 22.8578 3.14455C23.007 3.32099 23.0786 3.54491 23.0594 3.7752Z" fill="#FCFCFD"/>
<path d="M17.6656 13.3062H13.1543C12.8954 13.3062 12.6855 13.516 12.6855 13.7749V16.7181C12.6855 16.977 12.8954 17.1869 13.1543 17.1869H17.6656C17.9245 17.1869 18.1344 16.977 18.1344 16.7181V13.7749C18.1344 13.516 17.9245 13.3062 17.6656 13.3062ZM17.1969 16.2494H13.623V14.2437H17.1969V16.2494Z" fill="#FCFCFD"/>
</svg>
