<svg width="24" height="24" viewBox="0 0 24 24" fill="none" xmlns="http://www.w3.org/2000/svg">
<g clip-path="url(#clip0_436_577)">
<path d="M21.8324 1.0361C21.7498 0.985133 21.6546 0.958008 21.5576 0.958008H5.89179C4.54497 0.958008 3.44926 2.04303 3.44926 3.3728L3.3572 16.8634H0.526071C0.235499 16.8634 0 17.0989 0 17.3895V19.8199C0.00184947 21.6047 1.44813 23.0509 3.23287 23.053C3.26904 23.053 3.30541 23.0493 3.34096 23.0419H16.4116C16.4895 23.0474 16.568 23.0511 16.6471 23.0511C18.4596 23.0479 19.9272 21.5781 19.9278 19.7657V11.8795H23.4739C23.7644 11.8795 23.9999 11.644 23.9999 11.3535V3.54418C23.9936 2.28839 23.074 1.22413 21.8324 1.0361ZM1.05214 19.8201V17.9158H13.3663V19.7659C13.3657 20.5901 13.6758 21.3842 14.235 21.9898H3.16095C3.13608 21.99 3.11142 21.9918 3.08697 21.9955C1.94256 21.9176 1.05358 20.9672 1.05214 19.8201ZM18.8757 3.54418V19.7657C18.8747 20.3538 18.641 20.9173 18.2257 21.3334C17.8281 21.7413 17.2878 21.9795 16.7186 21.9976C16.6902 21.9926 16.6615 21.9902 16.6325 21.99H16.4475C15.3017 21.8771 14.4261 20.9175 14.4185 19.7661V17.3895C14.4185 17.0991 14.183 16.8634 13.8924 16.8634H4.40934L4.5014 3.3765C4.50901 2.61575 5.13084 2.0044 5.89179 2.01015H19.3983C19.0594 2.44971 18.8755 2.98914 18.8757 3.54418ZM22.9478 10.8274H19.9278V3.54418C19.9416 2.71994 20.6136 2.05926 21.4378 2.05926C22.2621 2.05926 22.934 2.71994 22.9478 3.54418V10.8274Z" fill="#FCFCFD"/>
<path d="M6.75361 6.65712H11.7361C12.0267 6.65712 12.2622 6.42162 12.2622 6.13105C12.2622 5.84048 12.0267 5.60498 11.7361 5.60498H6.75361C6.46304 5.60498 6.22754 5.84048 6.22754 6.13105C6.22754 6.42162 6.46304 6.65712 6.75361 6.65712Z" fill="#FCFCFD"/>
<path d="M16.0478 9.3667H6.75361C6.46304 9.3667 6.22754 9.6022 6.22754 9.89277C6.22754 10.1831 6.46304 10.4188 6.75361 10.4188H16.0478C16.3384 10.4188 16.5739 10.1831 16.5739 9.89277C16.5739 9.6022 16.3384 9.3667 16.0478 9.3667Z" fill="#FCFCFD"/>
<path d="M16.0478 13.1279H6.75361C6.46304 13.1279 6.22754 13.3636 6.22754 13.654C6.22754 13.9446 6.46304 14.1801 6.75361 14.1801H16.0478C16.3384 14.1801 16.5739 13.9446 16.5739 13.654C16.5739 13.3636 16.3384 13.1279 16.0478 13.1279Z" fill="#FCFCFD"/>
</g>
<defs>
<clipPath id="clip0_436_577">
<rect width="24" height="24" fill="white"/>
</clipPath>
</defs>
</svg>
